<svg xmlns="http://www.w3.org/2000/svg" xmlns:xlink="http://www.w3.org/1999/xlink" width="1080" zoomAndPan="magnify" viewBox="0 0 810 540.000001" height="720" preserveAspectRatio="xMidYMid meet" version="1.0"><defs><g/></defs><g fill="#3eb7ae" fill-opacity="1"><g transform="translate(117.614222, 224.334223)"><g><path d="M 110.9375 -44.75 L 65.65625 -44.75 C 48.320312 -44.75 35.859375 -48.363281 28.265625 -55.59375 C 20.671875 -62.832031 16.875 -74.046875 16.875 -89.234375 L 16.875 -183.28125 C 16.875 -186.675781 17.632812 -189.128906 19.15625 -190.640625 C 20.675781 -192.160156 23.132812 -192.921875 26.53125 -192.921875 L 68.0625 -192.921875 C 71.457031 -192.921875 73.910156 -192.160156 75.421875 -190.640625 C 76.941406 -189.128906 77.703125 -186.675781 77.703125 -183.28125 L 77.703125 -109.859375 C 77.703125 -107.003906 78.460938 -104.769531 79.984375 -103.15625 C 81.503906 -101.550781 83.515625 -100.75 86.015625 -100.75 L 110.9375 -100.75 L 110.9375 -183.28125 C 110.9375 -186.675781 111.691406 -189.128906 113.203125 -190.640625 C 114.722656 -192.160156 117.179688 -192.921875 120.578125 -192.921875 L 161.84375 -192.921875 C 165.238281 -192.921875 167.691406 -192.160156 169.203125 -190.640625 C 170.722656 -189.128906 171.484375 -186.675781 171.484375 -183.28125 L 171.484375 -9.640625 C 171.484375 -6.253906 170.722656 -3.800781 169.203125 -2.28125 C 167.691406 -0.757812 165.238281 0 161.84375 0 L 120.578125 0 C 117.179688 0 114.722656 -0.757812 113.203125 -2.28125 C 111.691406 -3.800781 110.9375 -6.253906 110.9375 -9.640625 Z M 110.9375 -44.75 "/></g></g></g><g fill="#3eb7ae" fill-opacity="1"><g transform="translate(307.59133, 224.334223)"><g><path d="M 179.265625 -50.640625 C 179.265625 -42.421875 178.101562 -34.960938 175.78125 -28.265625 C 173.457031 -21.566406 169.257812 -15.847656 163.1875 -11.109375 C 157.113281 -6.378906 148.757812 -2.675781 138.125 0 C 127.5 2.675781 113.96875 4.015625 97.53125 4.015625 C 81.101562 4.015625 67.570312 2.675781 56.9375 0 C 46.3125 -2.675781 37.960938 -6.378906 31.890625 -11.109375 C 25.816406 -15.847656 21.570312 -21.566406 19.15625 -28.265625 C 16.75 -34.960938 15.546875 -42.421875 15.546875 -50.640625 L 15.546875 -142.015625 C 15.546875 -150.234375 16.75 -157.691406 19.15625 -164.390625 C 21.570312 -171.085938 25.816406 -176.847656 31.890625 -181.671875 C 37.960938 -186.492188 46.3125 -190.242188 56.9375 -192.921875 C 67.570312 -195.609375 81.101562 -196.953125 97.53125 -196.953125 C 113.96875 -196.953125 127.5 -195.609375 138.125 -192.921875 C 148.757812 -190.242188 157.113281 -186.492188 163.1875 -181.671875 C 169.257812 -176.847656 173.457031 -171.085938 175.78125 -164.390625 C 178.101562 -157.691406 179.265625 -150.234375 179.265625 -142.015625 Z M 76.09375 -60.296875 C 76.09375 -56.722656 77.390625 -53.726562 79.984375 -51.3125 C 82.578125 -48.90625 88.425781 -47.703125 97.53125 -47.703125 C 106.644531 -47.703125 112.492188 -48.90625 115.078125 -51.3125 C 117.671875 -53.726562 118.96875 -56.722656 118.96875 -60.296875 L 118.96875 -132.375 C 118.96875 -135.757812 117.671875 -138.65625 115.078125 -141.0625 C 112.492188 -143.476562 106.644531 -144.6875 97.53125 -144.6875 C 88.425781 -144.6875 82.578125 -143.476562 79.984375 -141.0625 C 77.390625 -138.65625 76.09375 -135.757812 76.09375 -132.375 Z M 76.09375 -60.296875 "/></g></g></g><g fill="#3eb7ae" fill-opacity="1"><g transform="translate(502.391576, 224.334223)"><g><path d="M 110.9375 -44.75 L 65.65625 -44.75 C 48.320312 -44.75 35.859375 -48.363281 28.265625 -55.59375 C 20.671875 -62.832031 16.875 -74.046875 16.875 -89.234375 L 16.875 -183.28125 C 16.875 -186.675781 17.632812 -189.128906 19.15625 -190.640625 C 20.675781 -192.160156 23.132812 -192.921875 26.53125 -192.921875 L 68.0625 -192.921875 C 71.457031 -192.921875 73.910156 -192.160156 75.421875 -190.640625 C 76.941406 -189.128906 77.703125 -186.675781 77.703125 -183.28125 L 77.703125 -109.859375 C 77.703125 -107.003906 78.460938 -104.769531 79.984375 -103.15625 C 81.503906 -101.550781 83.515625 -100.75 86.015625 -100.75 L 110.9375 -100.75 L 110.9375 -183.28125 C 110.9375 -186.675781 111.691406 -189.128906 113.203125 -190.640625 C 114.722656 -192.160156 117.179688 -192.921875 120.578125 -192.921875 L 161.84375 -192.921875 C 165.238281 -192.921875 167.691406 -192.160156 169.203125 -190.640625 C 170.722656 -189.128906 171.484375 -186.675781 171.484375 -183.28125 L 171.484375 -9.640625 C 171.484375 -6.253906 170.722656 -3.800781 169.203125 -2.28125 C 167.691406 -0.757812 165.238281 0 161.84375 0 L 120.578125 0 C 117.179688 0 114.722656 -0.757812 113.203125 -2.28125 C 111.691406 -3.800781 110.9375 -6.253906 110.9375 -9.640625 Z M 110.9375 -44.75 "/></g></g></g><g fill="#3eb7ae" fill-opacity="1"><g transform="translate(24.657461, 335.877656)"><g><path d="M 23.125 0 L 9.515625 0 C 8.367188 0 7.535156 -0.253906 7.015625 -0.765625 C 6.503906 -1.285156 6.25 -2.117188 6.25 -3.265625 L 6.25 -62.03125 C 6.25 -63.175781 6.503906 -64.003906 7.015625 -64.515625 C 7.535156 -65.035156 8.367188 -65.296875 9.515625 -65.296875 L 18.953125 -65.296875 C 20.097656 -65.296875 21.078125 -65.113281 21.890625 -64.75 C 22.710938 -64.382812 23.515625 -63.75 24.296875 -62.84375 L 41.890625 -42.71875 L 41.890625 -62.03125 C 41.890625 -63.175781 42.144531 -64.003906 42.65625 -64.515625 C 43.175781 -65.035156 44.007812 -65.296875 45.15625 -65.296875 L 58.765625 -65.296875 C 59.910156 -65.296875 60.738281 -65.035156 61.25 -64.515625 C 61.769531 -64.003906 62.03125 -63.175781 62.03125 -62.03125 L 62.03125 -3.265625 C 62.03125 -2.117188 61.769531 -1.285156 61.25 -0.765625 C 60.738281 -0.253906 59.910156 0 58.765625 0 L 45.15625 0 C 44.007812 0 43.175781 -0.253906 42.65625 -0.765625 C 42.144531 -1.285156 41.890625 -2.117188 41.890625 -3.265625 L 41.890625 -14.421875 L 26.390625 -33.1875 L 26.390625 -3.265625 C 26.390625 -2.117188 26.128906 -1.285156 25.609375 -0.765625 C 25.097656 -0.253906 24.269531 0 23.125 0 Z M 23.125 0 "/></g></g></g><g fill="#3eb7ae" fill-opacity="1"><g transform="translate(92.936347, 335.877656)"><g><path d="M 29.921875 -46.25 L 25.671875 -32.46875 L 39.90625 -32.46875 L 35.640625 -46.25 C 35.398438 -46.789062 35.144531 -47.179688 34.875 -47.421875 C 34.601562 -47.671875 34.285156 -47.796875 33.921875 -47.796875 L 31.65625 -47.796875 C 31.289062 -47.796875 30.972656 -47.671875 30.703125 -47.421875 C 30.429688 -47.179688 30.171875 -46.789062 29.921875 -46.25 Z M 24.75 -3.265625 C 24.75 -2.117188 24.492188 -1.285156 23.984375 -0.765625 C 23.472656 -0.253906 22.644531 0 21.5 0 L 8.15625 0 C 7.007812 0 6.175781 -0.253906 5.65625 -0.765625 C 5.144531 -1.285156 4.890625 -2.117188 4.890625 -3.265625 L 4.890625 -27.203125 C 4.890625 -29.015625 5.175781 -31.097656 5.75 -33.453125 C 6.332031 -35.816406 7.226562 -38.570312 8.4375 -41.71875 L 16.328125 -62.296875 C 16.691406 -63.328125 17.25 -64.082031 18 -64.5625 C 18.757812 -65.050781 19.742188 -65.296875 20.953125 -65.296875 L 45.34375 -65.296875 C 46.488281 -65.296875 47.4375 -65.050781 48.1875 -64.5625 C 48.945312 -64.082031 49.507812 -63.328125 49.875 -62.296875 L 57.765625 -41.71875 C 58.972656 -38.570312 59.863281 -35.816406 60.4375 -33.453125 C 61.019531 -31.097656 61.3125 -29.015625 61.3125 -27.203125 L 61.3125 -3.265625 C 61.3125 -2.117188 61.050781 -1.285156 60.53125 -0.765625 C 60.019531 -0.253906 59.191406 0 58.046875 0 L 44.34375 0 C 43.132812 0 42.242188 -0.253906 41.671875 -0.765625 C 41.097656 -1.285156 40.8125 -2.117188 40.8125 -3.265625 L 40.8125 -15.96875 L 24.75 -15.96875 Z M 24.75 -3.265625 "/></g></g></g><g fill="#3eb7ae" fill-opacity="1"><g transform="translate(159.12969, 335.877656)"><g><path d="M 40.078125 0 L 9.515625 0 C 8.367188 0 7.535156 -0.253906 7.015625 -0.765625 C 6.503906 -1.285156 6.25 -2.117188 6.25 -3.265625 L 6.25 -62.03125 C 6.25 -63.175781 6.503906 -64.003906 7.015625 -64.515625 C 7.535156 -65.035156 8.367188 -65.296875 9.515625 -65.296875 L 40.078125 -65.296875 C 47.640625 -65.296875 53.25 -63.78125 56.90625 -60.75 C 60.5625 -57.726562 62.390625 -53.078125 62.390625 -46.796875 L 62.390625 -18.5 C 62.390625 -12.207031 60.5625 -7.550781 56.90625 -4.53125 C 53.25 -1.507812 47.640625 0 40.078125 0 Z M 26.84375 -47.96875 L 26.84375 -17.140625 L 37.640625 -17.140625 C 39.085938 -17.140625 40.15625 -17.5 40.84375 -18.21875 C 41.539062 -18.945312 41.890625 -20.066406 41.890625 -21.578125 L 41.890625 -43.625 C 41.890625 -45.132812 41.539062 -46.234375 40.84375 -46.921875 C 40.15625 -47.617188 39.085938 -47.96875 37.640625 -47.96875 Z M 26.84375 -47.96875 "/></g></g></g><g fill="#3eb7ae" fill-opacity="1"><g transform="translate(226.773849, 335.877656)"><g><path d="M 29.921875 -46.25 L 25.671875 -32.46875 L 39.90625 -32.46875 L 35.640625 -46.25 C 35.398438 -46.789062 35.144531 -47.179688 34.875 -47.421875 C 34.601562 -47.671875 34.285156 -47.796875 33.921875 -47.796875 L 31.65625 -47.796875 C 31.289062 -47.796875 30.972656 -47.671875 30.703125 -47.421875 C 30.429688 -47.179688 30.171875 -46.789062 29.921875 -46.25 Z M 24.75 -3.265625 C 24.75 -2.117188 24.492188 -1.285156 23.984375 -0.765625 C 23.472656 -0.253906 22.644531 0 21.5 0 L 8.15625 0 C 7.007812 0 6.175781 -0.253906 5.65625 -0.765625 C 5.144531 -1.285156 4.890625 -2.117188 4.890625 -3.265625 L 4.890625 -27.203125 C 4.890625 -29.015625 5.175781 -31.097656 5.75 -33.453125 C 6.332031 -35.816406 7.226562 -38.570312 8.4375 -41.71875 L 16.328125 -62.296875 C 16.691406 -63.328125 17.25 -64.082031 18 -64.5625 C 18.757812 -65.050781 19.742188 -65.296875 20.953125 -65.296875 L 45.34375 -65.296875 C 46.488281 -65.296875 47.4375 -65.050781 48.1875 -64.5625 C 48.945312 -64.082031 49.507812 -63.328125 49.875 -62.296875 L 57.765625 -41.71875 C 58.972656 -38.570312 59.863281 -35.816406 60.4375 -33.453125 C 61.019531 -31.097656 61.3125 -29.015625 61.3125 -27.203125 L 61.3125 -3.265625 C 61.3125 -2.117188 61.050781 -1.285156 60.53125 -0.765625 C 60.019531 -0.253906 59.191406 0 58.046875 0 L 44.34375 0 C 43.132812 0 42.242188 -0.253906 41.671875 -0.765625 C 41.097656 -1.285156 40.8125 -2.117188 40.8125 -3.265625 L 40.8125 -15.96875 L 24.75 -15.96875 Z M 24.75 -3.265625 "/></g></g></g><g fill="#3eb7ae" fill-opacity="1"><g transform="translate(292.967191, 335.877656)"><g/></g></g><g fill="#3eb7ae" fill-opacity="1"><g transform="translate(313.369244, 335.877656)"><g><path d="M 23.578125 0 L 9.515625 0 C 8.367188 0 7.535156 -0.253906 7.015625 -0.765625 C 6.503906 -1.285156 6.25 -2.117188 6.25 -3.265625 L 6.25 -62.03125 C 6.25 -63.175781 6.503906 -64.003906 7.015625 -64.515625 C 7.535156 -65.035156 8.367188 -65.296875 9.515625 -65.296875 L 37.265625 -65.296875 C 45.492188 -65.296875 51.117188 -63.660156 54.140625 -60.390625 C 57.160156 -57.128906 58.671875 -52.867188 58.671875 -47.609375 L 58.671875 -36 C 58.671875 -30.738281 57.160156 -26.472656 54.140625 -23.203125 C 51.117188 -19.941406 45.492188 -18.3125 37.265625 -18.3125 L 26.84375 -18.3125 L 26.84375 -3.265625 C 26.84375 -2.117188 26.582031 -1.285156 26.0625 -0.765625 C 25.550781 -0.253906 24.722656 0 23.578125 0 Z M 26.65625 -48.34375 L 26.65625 -34.640625 L 34.828125 -34.640625 C 36.578125 -34.640625 37.722656 -35.09375 38.265625 -36 C 38.816406 -36.90625 39.09375 -37.9375 39.09375 -39.09375 L 39.09375 -43.890625 C 39.09375 -45.035156 38.816406 -46.0625 38.265625 -46.96875 C 37.722656 -47.882812 36.578125 -48.34375 34.828125 -48.34375 Z M 26.65625 -48.34375 "/></g></g></g><g fill="#3eb7ae" fill-opacity="1"><g transform="translate(375.21015, 335.877656)"><g><path d="M 61.578125 -17.140625 C 61.578125 -14.359375 61.164062 -11.832031 60.34375 -9.5625 C 59.53125 -7.300781 58.082031 -5.367188 56 -3.765625 C 53.914062 -2.160156 51.039062 -0.90625 47.375 0 C 43.71875 0.90625 39.082031 1.359375 33.46875 1.359375 C 27.84375 1.359375 23.1875 0.90625 19.5 0 C 15.8125 -0.90625 12.921875 -2.160156 10.828125 -3.765625 C 8.742188 -5.367188 7.296875 -7.300781 6.484375 -9.5625 C 5.671875 -11.832031 5.265625 -14.359375 5.265625 -17.140625 L 5.265625 -48.0625 C 5.265625 -50.84375 5.671875 -53.363281 6.484375 -55.625 C 7.296875 -57.894531 8.742188 -59.847656 10.828125 -61.484375 C 12.921875 -63.117188 15.8125 -64.390625 19.5 -65.296875 C 23.1875 -66.203125 27.84375 -66.65625 33.46875 -66.65625 C 39.082031 -66.65625 43.71875 -66.203125 47.375 -65.296875 C 51.039062 -64.390625 53.914062 -63.117188 56 -61.484375 C 58.082031 -59.847656 59.53125 -57.894531 60.34375 -55.625 C 61.164062 -53.363281 61.578125 -50.84375 61.578125 -48.0625 Z M 25.84375 -20.40625 C 25.84375 -19.195312 26.296875 -18.179688 27.203125 -17.359375 C 28.109375 -16.546875 30.195312 -16.140625 33.46875 -16.140625 C 36.726562 -16.140625 38.8125 -16.546875 39.71875 -17.359375 C 40.625 -18.179688 41.078125 -19.195312 41.078125 -20.40625 L 41.078125 -44.796875 C 41.078125 -45.941406 40.625 -46.921875 39.71875 -47.734375 C 38.8125 -48.554688 36.726562 -48.96875 33.46875 -48.96875 C 30.195312 -48.96875 28.109375 -48.554688 27.203125 -47.734375 C 26.296875 -46.921875 25.84375 -45.941406 25.84375 -44.796875 Z M 25.84375 -20.40625 "/></g></g></g><g fill="#3eb7ae" fill-opacity="1"><g transform="translate(442.03822, 335.877656)"><g><path d="M 26.75 -48.96875 L 26.75 -37.359375 L 33.546875 -37.359375 C 35.117188 -37.359375 36.175781 -37.765625 36.71875 -38.578125 C 37.269531 -39.398438 37.546875 -40.414062 37.546875 -41.625 L 37.546875 -44.703125 C 37.546875 -45.910156 37.269531 -46.921875 36.71875 -47.734375 C 36.175781 -48.554688 35.117188 -48.96875 33.546875 -48.96875 Z M 23.484375 0 L 9.515625 0 C 8.367188 0 7.535156 -0.253906 7.015625 -0.765625 C 6.503906 -1.285156 6.25 -2.117188 6.25 -3.265625 L 6.25 -62.03125 C 6.25 -63.175781 6.503906 -64.003906 7.015625 -64.515625 C 7.535156 -65.035156 8.367188 -65.296875 9.515625 -65.296875 L 39.71875 -65.296875 C 46.488281 -65.296875 51.160156 -63.890625 53.734375 -61.078125 C 56.304688 -58.265625 57.59375 -54.625 57.59375 -50.15625 L 57.59375 -45.984375 C 57.59375 -43.441406 57.210938 -41.273438 56.453125 -39.484375 C 55.691406 -37.703125 54.378906 -36.421875 52.515625 -35.640625 C 55.773438 -35.273438 58.414062 -33.941406 60.4375 -31.640625 C 62.46875 -29.347656 63.484375 -26.296875 63.484375 -22.484375 L 63.484375 -3.265625 C 63.484375 -2.117188 63.222656 -1.285156 62.703125 -0.765625 C 62.191406 -0.253906 61.363281 0 60.21875 0 L 46.15625 0 C 45.007812 0 44.175781 -0.253906 43.65625 -0.765625 C 43.144531 -1.285156 42.890625 -2.117188 42.890625 -3.265625 L 42.890625 -17.140625 C 42.890625 -18.472656 42.632812 -19.457031 42.125 -20.09375 C 41.613281 -20.726562 40.722656 -21.046875 39.453125 -21.046875 L 26.75 -21.046875 L 26.75 -3.265625 C 26.75 -2.117188 26.492188 -1.285156 25.984375 -0.765625 C 25.472656 -0.253906 24.640625 0 23.484375 0 Z M 23.484375 0 "/></g></g></g><g fill="#3eb7ae" fill-opacity="1"><g transform="translate(509.410341, 335.877656)"><g/></g></g><g fill="#3eb7ae" fill-opacity="1"><g transform="translate(529.812394, 335.877656)"><g><path d="M 29.921875 -46.25 L 25.671875 -32.46875 L 39.90625 -32.46875 L 35.640625 -46.25 C 35.398438 -46.789062 35.144531 -47.179688 34.875 -47.421875 C 34.601562 -47.671875 34.285156 -47.796875 33.921875 -47.796875 L 31.65625 -47.796875 C 31.289062 -47.796875 30.972656 -47.671875 30.703125 -47.421875 C 30.429688 -47.179688 30.171875 -46.789062 29.921875 -46.25 Z M 24.75 -3.265625 C 24.75 -2.117188 24.492188 -1.285156 23.984375 -0.765625 C 23.472656 -0.253906 22.644531 0 21.5 0 L 8.15625 0 C 7.007812 0 6.175781 -0.253906 5.65625 -0.765625 C 5.144531 -1.285156 4.890625 -2.117188 4.890625 -3.265625 L 4.890625 -27.203125 C 4.890625 -29.015625 5.175781 -31.097656 5.75 -33.453125 C 6.332031 -35.816406 7.226562 -38.570312 8.4375 -41.71875 L 16.328125 -62.296875 C 16.691406 -63.328125 17.25 -64.082031 18 -64.5625 C 18.757812 -65.050781 19.742188 -65.296875 20.953125 -65.296875 L 45.34375 -65.296875 C 46.488281 -65.296875 47.4375 -65.050781 48.1875 -64.5625 C 48.945312 -64.082031 49.507812 -63.328125 49.875 -62.296875 L 57.765625 -41.71875 C 58.972656 -38.570312 59.863281 -35.816406 60.4375 -33.453125 C 61.019531 -31.097656 61.3125 -29.015625 61.3125 -27.203125 L 61.3125 -3.265625 C 61.3125 -2.117188 61.050781 -1.285156 60.53125 -0.765625 C 60.019531 -0.253906 59.191406 0 58.046875 0 L 44.34375 0 C 43.132812 0 42.242188 -0.253906 41.671875 -0.765625 C 41.097656 -1.285156 40.8125 -2.117188 40.8125 -3.265625 L 40.8125 -15.96875 L 24.75 -15.96875 Z M 24.75 -3.265625 "/></g></g></g><g fill="#3eb7ae" fill-opacity="1"><g transform="translate(596.00576, 335.877656)"><g><path d="M 40.359375 8.15625 L 26.390625 8.15625 C 25.242188 8.15625 24.410156 7.898438 23.890625 7.390625 C 23.378906 6.878906 23.125 6.046875 23.125 4.890625 L 23.125 -0.09375 C 16.113281 -1.113281 11.382812 -3.210938 8.9375 -6.390625 C 6.488281 -9.566406 5.265625 -13.421875 5.265625 -17.953125 L 5.265625 -48.0625 C 5.265625 -50.84375 5.671875 -53.363281 6.484375 -55.625 C 7.296875 -57.894531 8.742188 -59.847656 10.828125 -61.484375 C 12.921875 -63.117188 15.8125 -64.390625 19.5 -65.296875 C 23.1875 -66.203125 27.84375 -66.65625 33.46875 -66.65625 C 39.082031 -66.65625 43.71875 -66.203125 47.375 -65.296875 C 51.039062 -64.390625 53.914062 -63.117188 56 -61.484375 C 58.082031 -59.847656 59.53125 -57.894531 60.34375 -55.625 C 61.164062 -53.363281 61.578125 -50.84375 61.578125 -48.0625 L 61.578125 -17.953125 C 61.578125 -15.660156 61.300781 -13.53125 60.75 -11.5625 C 60.207031 -9.59375 59.269531 -7.851562 57.9375 -6.34375 C 56.613281 -4.832031 54.785156 -3.53125 52.453125 -2.4375 C 50.128906 -1.351562 47.1875 -0.570312 43.625 -0.09375 L 43.625 4.890625 C 43.625 6.046875 43.363281 6.878906 42.84375 7.390625 C 42.332031 7.898438 41.503906 8.15625 40.359375 8.15625 Z M 25.84375 -19.953125 C 25.84375 -18.742188 26.296875 -17.726562 27.203125 -16.90625 C 28.109375 -16.09375 30.195312 -15.6875 33.46875 -15.6875 C 36.726562 -15.6875 38.8125 -16.09375 39.71875 -16.90625 C 40.625 -17.726562 41.078125 -18.742188 41.078125 -19.953125 L 41.078125 -44.703125 C 41.078125 -45.859375 40.625 -46.84375 39.71875 -47.65625 C 38.8125 -48.46875 36.726562 -48.875 33.46875 -48.875 C 30.195312 -48.875 28.109375 -48.46875 27.203125 -47.65625 C 26.296875 -46.84375 25.84375 -45.859375 25.84375 -44.703125 Z M 25.84375 -19.953125 "/></g></g></g><g fill="#3eb7ae" fill-opacity="1"><g transform="translate(662.833829, 335.877656)"><g><path d="M 61.84375 -17.140625 C 61.84375 -14.359375 61.4375 -11.832031 60.625 -9.5625 C 59.8125 -7.300781 58.359375 -5.367188 56.265625 -3.765625 C 54.179688 -2.160156 51.328125 -0.90625 47.703125 0 C 44.078125 0.90625 39.453125 1.359375 33.828125 1.359375 C 28.203125 1.359375 23.578125 0.90625 19.953125 0 C 16.328125 -0.90625 13.46875 -2.160156 11.375 -3.765625 C 9.289062 -5.367188 7.835938 -7.300781 7.015625 -9.5625 C 6.203125 -11.832031 5.796875 -14.359375 5.796875 -17.140625 L 5.796875 -62.03125 C 5.796875 -63.175781 6.050781 -64.003906 6.5625 -64.515625 C 7.082031 -65.035156 7.914062 -65.296875 9.0625 -65.296875 L 23.3125 -65.296875 C 24.457031 -65.296875 25.285156 -65.035156 25.796875 -64.515625 C 26.316406 -64.003906 26.578125 -63.175781 26.578125 -62.03125 L 26.578125 -20.671875 C 26.578125 -19.460938 27.03125 -18.453125 27.9375 -17.640625 C 28.84375 -16.828125 30.867188 -16.421875 34.015625 -16.421875 C 37.210938 -16.421875 39.265625 -16.828125 40.171875 -17.640625 C 41.078125 -18.453125 41.53125 -19.460938 41.53125 -20.671875 L 41.53125 -62.03125 C 41.53125 -63.175781 41.785156 -64.003906 42.296875 -64.515625 C 42.816406 -65.035156 43.648438 -65.296875 44.796875 -65.296875 L 58.578125 -65.296875 C 59.734375 -65.296875 60.566406 -65.035156 61.078125 -64.515625 C 61.585938 -64.003906 61.84375 -63.175781 61.84375 -62.03125 Z M 61.84375 -17.140625 "/></g></g></g><g fill="#3eb7ae" fill-opacity="1"><g transform="translate(730.477999, 335.877656)"><g><path d="M 8.078125 0 C 6.921875 0 6.085938 -0.253906 5.578125 -0.765625 C 5.066406 -1.285156 4.8125 -2.117188 4.8125 -3.265625 L 4.8125 -14.0625 C 4.8125 -15.207031 5.066406 -16.035156 5.578125 -16.546875 C 6.085938 -17.066406 6.921875 -17.328125 8.078125 -17.328125 L 17.046875 -17.328125 L 17.046875 -47.796875 L 8.078125 -47.796875 C 6.921875 -47.796875 6.085938 -48.050781 5.578125 -48.5625 C 5.066406 -49.070312 4.8125 -49.90625 4.8125 -51.0625 L 4.8125 -62.03125 C 4.8125 -63.175781 5.066406 -64.003906 5.578125 -64.515625 C 6.085938 -65.035156 6.921875 -65.296875 8.078125 -65.296875 L 46.703125 -65.296875 C 47.847656 -65.296875 48.675781 -65.035156 49.1875 -64.515625 C 49.707031 -64.003906 49.96875 -63.175781 49.96875 -62.03125 L 49.96875 -51.0625 C 49.96875 -49.90625 49.707031 -49.070312 49.1875 -48.5625 C 48.675781 -48.050781 47.847656 -47.796875 46.703125 -47.796875 L 37.90625 -47.796875 L 37.90625 -17.328125 L 46.703125 -17.328125 C 47.847656 -17.328125 48.675781 -17.066406 49.1875 -16.546875 C 49.707031 -16.035156 49.96875 -15.207031 49.96875 -14.0625 L 49.96875 -3.265625 C 49.96875 -2.117188 49.707031 -1.285156 49.1875 -0.765625 C 48.675781 -0.253906 47.847656 0 46.703125 0 Z M 8.078125 0 "/></g></g></g></svg>